<svg xmlns="http://www.w3.org/2000/svg" viewBox="0 0 100 100"><defs><style>.cls-1{fill:none;}.cls-2{fill:#fff;}</style></defs><title>auth-blanc</title><g id="Calque_2" data-name="Calque 2"><g id="AUTH"><g id="AUTH-2" data-name="AUTH"><path class="cls-1" d="M2,2V98H98V2Z"/><path class="cls-1" d="M0,0V100H100V0Z"/><path class="cls-2" d="M66.27,90.78a4,4,0,0,1-4-4v-8a12.05,12.05,0,0,0-12-12H22.15a12.05,12.05,0,0,0-12,12v8a4,4,0,1,1-8,0v-8a20.08,20.08,0,0,1,20.06-20H50.22a20.08,20.08,0,0,1,20.06,20v8A4,4,0,0,1,66.27,90.78Z"/><path class="cls-2" d="M35.74,49.33a20.06,20.06,0,1,1,20-20A20.08,20.08,0,0,1,35.74,49.33Zm0-32.09a12,12,0,1,0,12,12A12,12,0,0,0,35.74,17.24Z"/><path class="cls-2" d="M77.85,57.35A4,4,0,0,1,75,56.18l-8-8a4,4,0,0,1,5.67-5.67l5.18,5.18L91.06,34.46a4,4,0,1,1,5.67,5.68l-16,16A4,4,0,0,1,77.85,57.35Z"/></g></g></g></svg>