<svg xmlns="http://www.w3.org/2000/svg" viewBox="0 0 100 100"><defs><style>.cls-1{fill:none;}.cls-2{fill:#fff;}</style></defs><title>Database.dark</title><g id="Calque_2" data-name="Calque 2"><g id="AUTOMATIONS"><g id="DATABASE_DARK" data-name="DATABASE DARK"><path class="cls-1" d="M2,2V98H98V2Z"/><path class="cls-1" d="M0,0V100H100V0Z"/><path class="cls-2" d="M50,36.91c-21,0-43.64-5.46-43.64-17.46S29,2,50,2,93.64,7.46,93.64,19.45,71,36.91,50,36.91Zm0-26.18c-22.9,0-34.91,6.48-34.91,8.72s12,8.73,34.91,8.73,34.91-6.48,34.91-8.73S72.9,10.73,50,10.73Z"/><path class="cls-2" d="M50,67.45C29,67.45,6.36,62,6.36,50a4.37,4.37,0,0,1,8.73,0c0,2,10.88,8.73,34.91,8.73S84.91,52,84.91,50a4.37,4.37,0,0,1,8.73,0C93.64,62,71,67.45,50,67.45Z"/><path class="cls-2" d="M50,98C29,98,6.36,92.54,6.36,80.55V19.45a4.37,4.37,0,0,1,8.73,0v61.1c0,2,10.88,8.72,34.91,8.72s34.91-6.69,34.91-8.72V19.45a4.37,4.37,0,0,1,8.73,0v61.1C93.64,92.54,71,98,50,98Z"/></g></g></g></svg>