<svg xmlns="http://www.w3.org/2000/svg" viewBox="0 0 100.06 100"><defs><style>.cls-1{fill:none;}.cls-2{fill:#fff;}</style></defs><title>Output.dark</title><g id="Calque_2" data-name="Calque 2"><g id="OUTPUT"><g id="SECTION"><path class="cls-1" d="M2,2V98H98V2Z"/><path class="cls-1" d="M0,0V100H100V0Z"/></g><g id="OUTPUT_DARK" data-name="OUTPUT DARK"><path class="cls-2" d="M73.77,61.19a4,4,0,0,1,0-5.65L87.92,41.39,73.77,27.25a4,4,0,1,1,5.66-5.66l17,17a4,4,0,0,1,0,5.65l-17,17A4,4,0,0,1,73.77,61.19Z"/><path class="cls-2" d="M88.69,45.33H42a4,4,0,0,1,0-8H88.69a4,4,0,0,1,0,8Z"/></g></g><g id="DISPLAY"><g id="DISPLAY-2" data-name="DISPLAY"><path class="cls-1" d="M2.06,2V98h96V2Z"/><path class="cls-1" d="M.06,0V100h100V0Z"/><path class="cls-2" d="M15.15,15.09H62V6.36H15.15A13.1,13.1,0,0,0,2.06,19.45V63.09A13.1,13.1,0,0,0,15.15,76.18H62V67.45H15.15a4.36,4.36,0,0,1-4.36-4.36V19.45A4.36,4.36,0,0,1,15.15,15.09Z"/><path class="cls-2" d="M67.51,93.64H32.6a4.37,4.37,0,0,1,0-8.73H67.51a4.37,4.37,0,1,1,0,8.73Z"/><path class="cls-2" d="M50.06,93.64a4.37,4.37,0,0,1-4.37-4.37V71.82a4.37,4.37,0,1,1,8.73,0V89.27A4.37,4.37,0,0,1,50.06,93.64Z"/></g></g></g></svg>