<svg xmlns="http://www.w3.org/2000/svg" viewBox="0 0 100 100"><defs><style>.cls-1{fill:none;}.cls-2{fill:#fff;}</style></defs><title>recipe</title><g id="Calque_2" data-name="Calque 2"><g id="CATALOG"><g id="RECIPE"><path class="cls-1" d="M2,2V98H98V2Z"/><path class="cls-1" d="M0,0V100H100V0Z"/><path class="cls-2" d="M15.09,87.09a4.36,4.36,0,0,1-4.36-4.36A15.29,15.29,0,0,1,26,67.46H84.91a4.36,4.36,0,1,1,0,8.72H26a6.56,6.56,0,0,0-6.55,6.55A4.36,4.36,0,0,1,15.09,87.09Z"/><path class="cls-2" d="M84.91,98H26A15.29,15.29,0,0,1,10.73,82.73V17.27A15.29,15.29,0,0,1,26,2H84.91a4.36,4.36,0,0,1,4.36,4.36V93.64A4.36,4.36,0,0,1,84.91,98ZM26,10.73a6.55,6.55,0,0,0-6.55,6.54V82.73A6.55,6.55,0,0,0,26,89.27H80.55V10.73Z"/></g></g></g></svg>