<svg xmlns="http://www.w3.org/2000/svg" viewBox="0 0 100 100"><defs><style>.cls-1{fill:#fff;}.cls-2{fill:none;}</style></defs><title>Git-blanc</title><g id="Calque_2" data-name="Calque 2"><g id="ENDPOINTS"><g id="GIT"><path class="cls-1" d="M23.55,66.77c10.41.7,12.64.45,12.64,2.55,0,4.29-14,4.3-14,.33A4.86,4.86,0,0,1,23.55,66.77Zm6-25c-6.92,0-7.23,9.53-.16,9.53a4.78,4.78,0,1,0,.16-9.53ZM98,12.29V87.71A10.29,10.29,0,0,1,87.71,98H12.29A10.29,10.29,0,0,1,2,87.71V12.29A10.29,10.29,0,0,1,12.29,2H87.71A10.29,10.29,0,0,1,98,12.29ZM49.36,27.14c0,3.1,1.79,4.9,4.9,4.9s5-1.8,5-4.9-1.79-4.78-5-4.78S49.36,24,49.36,27.14Zm-4.68,9.79H34.06c-5.35-1.41-17.47-1-17.47,10a8.69,8.69,0,0,0,4.68,8.16c-3.36,3.08-5,4.53-5,6.59a3.63,3.63,0,0,0,2.4,3.59c-1.91,1.8-3,3.1-3,5.56,0,4.3,3.76,6.79,13.62,6.79,9.47,0,15-3.54,15-9.8,0-7.85-6-7.57-20.31-8.44l1.8-2.87c3.64,1,15.89,1.33,15.89-9.1a8.65,8.65,0,0,0-2-5.5l5-.38ZM62.75,60.47,60,60.08c-.82-.11-.87-.21-.87-1.09V36.4H47.82l-.59,4.4C50.6,42,50.87,41.85,50.87,43V59c0,1.2-.07,1-3.64,1.47v4.3H62.75Zm21.54,2.17-1.48-4.79C74,61.14,74.7,55.19,74.7,54.26v-13h8.11V35.81H75.14c-.62,0-.43.54-.43-8.28H69.53c-.6,5.94-2.5,8.33-7.29,8.88v4.84c4.39,0,4.25-.18,4.25.55V56.06c0,6.16,2.45,8.77,8.93,8.77a21.68,21.68,0,0,0,8.87-2.19Z"/><path class="cls-2" d="M2,2V98H98V2Z"/><path class="cls-2" d="M0,0V100H100V0Z"/></g></g></g></svg>