<svg xmlns="http://www.w3.org/2000/svg" viewBox="0 0 100 100"><defs><style>.cls-1{fill:none;}.cls-2{fill:#fff;}</style></defs><title>Section.dark_1</title><g id="Calque_2" data-name="Calque 2"><g id="OUTPUT"><g id="SECTION"><path class="cls-1" d="M2,2V98H98V2Z"/><path class="cls-1" d="M0,0V100H100V0Z"/><path class="cls-2" d="M50,86.5C19.45,86.5,2.46,53.23,1.76,51.81a4,4,0,0,1,0-3.62C2.46,46.77,19.45,13.5,50,13.5S97.54,46.77,98.24,48.19a4,4,0,0,1,0,3.62C97.54,53.23,80.55,86.5,50,86.5ZM10,50c3.81,6.52,18.18,28.39,40,28.39S86.2,56.54,90,50c-3.81-6.52-18.18-28.39-40-28.39S13.8,43.46,10,50Z"/><path class="cls-2" d="M50,66.22A16.22,16.22,0,1,1,66.22,50,16.23,16.23,0,0,1,50,66.22Zm0-24.33A8.11,8.11,0,1,0,58.11,50,8.12,8.12,0,0,0,50,41.89Z"/></g></g></g></svg>