<svg xmlns="http://www.w3.org/2000/svg" viewBox="0 0 100 100"><defs><style>.cls-1{fill:none;}.cls-2{fill:#fff;}</style></defs><title>storage-blanc</title><g id="Calque_2" data-name="Calque 2"><g id="STORAGE"><g id="STORAGE-2" data-name="STORAGE"><path class="cls-1" d="M2,2V98H98V2Z"/><path class="cls-1" d="M0,0V100H100V0Z"/><path class="cls-2" d="M50,98a13.07,13.07,0,0,1-6.55-1.75L12.92,78.8A13.16,13.16,0,0,1,6.35,67.46V32.54A13.12,13.12,0,0,1,12.9,21.21L43.47,3.74a13.14,13.14,0,0,1,13.08,0L87.08,21.2a13.15,13.15,0,0,1,6.57,11.33V67.46h0A13.16,13.16,0,0,1,87.1,78.79L56.53,96.26A13,13,0,0,1,50,98Zm0-87.27a4.32,4.32,0,0,0-2.18.58L17.25,28.78a4.36,4.36,0,0,0-2.17,3.76V67.46a4.38,4.38,0,0,0,2.19,3.77L47.8,88.68a4.39,4.39,0,0,0,4.38,0L82.75,71.22a4.4,4.4,0,0,0,2.17-3.77V32.54a4.4,4.4,0,0,0-2.18-3.77L52.2,11.32A4.35,4.35,0,0,0,50,10.73ZM89.28,67.46h0Z"/><path class="cls-2" d="M50,54.41a4.42,4.42,0,0,1-2.19-.59l-38.1-22a4.36,4.36,0,0,1,4.37-7.55L50,45,85.92,24.22a4.36,4.36,0,0,1,4.37,7.55L52.19,53.82A4.42,4.42,0,0,1,50,54.41Z"/><path class="cls-2" d="M50,96.24a4.36,4.36,0,0,1-4.36-4.36V48.23a4.36,4.36,0,1,1,8.72,0V91.88A4.36,4.36,0,0,1,50,96.24Z"/></g></g></g></svg>