<svg xmlns="http://www.w3.org/2000/svg" viewBox="0 0 100 100"><defs><style>.cls-1{fill:none;}.cls-2{fill:#fff;}</style></defs><title>quantity</title><g id="Calque_2" data-name="Calque 2"><g id="FIELD"><g id="QUANTITY"><path class="cls-1" d="M2,2V98H98V2Z"/><path class="cls-1" d="M0,0V100H100V0Z"/><polygon class="cls-2" points="27.91 65.38 27.91 72.16 2 72.16 2 65.38 11.19 65.38 11.19 37.72 2.66 43.11 2.66 35.28 14.25 27.91 18.77 27.91 18.77 65.38 27.91 65.38"/><path class="cls-2" d="M63.81,65.38v6.78H34.4v-5.5L49.27,50.15a28.52,28.52,0,0,0,4-5.58,10.11,10.11,0,0,0,1.2-4.63A5.35,5.35,0,0,0,53,35.68a6.67,6.67,0,0,0-4.74-1.5c-3.6,0-7.29,1.53-10.89,4.49L36,39.76l-3-6.12.73-.7a19.56,19.56,0,0,1,6.63-4,22.9,22.9,0,0,1,8-1.49c4.12,0,7.47,1.09,9.91,3.28a11.42,11.42,0,0,1,3.79,9,16.75,16.75,0,0,1-1.75,7.47,33.51,33.51,0,0,1-5.54,7.69L45,65.38Z"/><path class="cls-2" d="M98,59.55a12,12,0,0,1-4.15,9.58c-2.7,2.26-6.35,3.43-10.87,3.43a23.93,23.93,0,0,1-8.2-1.42A19.39,19.39,0,0,1,68,67.06l-.73-.7,3.1-6.12,1.31,1.09c3.57,3,7.33,4.49,11.15,4.49a8.88,8.88,0,0,0,5.84-1.68,5.87,5.87,0,0,0,1.82-4.77c0-2.7-.84-6.27-8.2-6.27H76.21V46.32h5.21c2.73,0,4.81-.58,6.16-1.71a5.84,5.84,0,0,0,2-4.78A5.33,5.33,0,0,0,88,35.64a7,7,0,0,0-4.78-1.46c-3.61,0-7.29,1.53-10.89,4.49L71,39.76l-3-6.12.73-.7a18.87,18.87,0,0,1,6.59-4,22.46,22.46,0,0,1,8.09-1.46c4.05,0,7.37,1.06,9.85,3.17a10.94,10.94,0,0,1,3.82,8.75,12.54,12.54,0,0,1-2,7,11.44,11.44,0,0,1-2.77,2.91,10.64,10.64,0,0,1,3.5,2.95A12,12,0,0,1,98,59.55Z"/></g></g></g></svg>