<svg xmlns="http://www.w3.org/2000/svg" viewBox="0 0 100 100"><defs><style>.cls-1{fill:#fff;}.cls-2{fill:none;}</style></defs><title>user-blanc</title><g id="Calque_2" data-name="Calque 2"><g id="AUTH"><g id="USER"><path class="cls-1" d="M88.4,98a4.8,4.8,0,0,1-4.8-4.8V83.6A14.42,14.42,0,0,0,69.2,69.2H30.8A14.42,14.42,0,0,0,16.4,83.6v9.6a4.8,4.8,0,0,1-9.6,0V83.6a24,24,0,0,1,24-24H69.2a24,24,0,0,1,24,24v9.6A4.8,4.8,0,0,1,88.4,98Z"/><path class="cls-1" d="M50,50A24,24,0,1,1,74,26,24,24,0,0,1,50,50Zm0-38.4A14.4,14.4,0,1,0,64.4,26,14.42,14.42,0,0,0,50,11.6Z"/><path class="cls-2" d="M2,2V98H98V2Z"/><path class="cls-2" d="M0,0V100H100V0Z"/></g></g></g></svg>