<svg xmlns="http://www.w3.org/2000/svg" viewBox="0 0 100 100"><defs><style>.cls-1{fill:none;}.cls-2{fill:#fff;}</style></defs><title>volume_3</title><g id="Calque_2" data-name="Calque 2"><g id="FIELD"><g id="VOLUME"><path class="cls-1" d="M2,2V98H98V2Z"/><path class="cls-1" d="M0,0V100H100V0Z"/><path class="cls-2" d="M93.64,54.36H6.36a4.36,4.36,0,0,1,0-8.72H93.64a4.36,4.36,0,0,1,0,8.72Z"/><path class="cls-2" d="M84.91,89.27H15.09A13.1,13.1,0,0,1,2,76.18V50a4.44,4.44,0,0,1,.46-2L17.51,18a13,13,0,0,1,11.72-7.26H70.77A13,13,0,0,1,82.49,18L97.54,48A4.44,4.44,0,0,1,98,50V76.18A13.1,13.1,0,0,1,84.91,89.27ZM10.73,51V76.18a4.37,4.37,0,0,0,4.36,4.37H84.91a4.37,4.37,0,0,0,4.36-4.37V51L74.68,21.89a4.34,4.34,0,0,0-3.91-2.44H29.23a4.32,4.32,0,0,0-3.9,2.43h0ZM21.42,19.94h0Z"/><path class="cls-2" d="M23.86,71.82a4.37,4.37,0,0,1,0-8.73h0a4.37,4.37,0,0,1,0,8.73Z"/><path class="cls-2" d="M41.32,71.82a4.37,4.37,0,0,1,0-8.73h0a4.37,4.37,0,0,1,0,8.73Z"/></g></g></g></svg>