<svg xmlns="http://www.w3.org/2000/svg" viewBox="0 0 100 100"><defs><style>.cls-1{fill:none;}.cls-2{fill:#fff;}</style></defs><title>catalog</title><g id="Calque_2" data-name="Calque 2"><g id="CATALOG"><g id="CATALOG-2" data-name="CATALOG"><path class="cls-1" d="M2,2V98H98V2Z"/><path class="cls-1" d="M0,0V100H100V0Z"/><path class="cls-2" d="M50,93.63a4.36,4.36,0,0,1-4.36-4.36,8.74,8.74,0,0,0-8.73-8.72H6.36A4.37,4.37,0,0,1,2,76.18V10.73A4.37,4.37,0,0,1,6.36,6.36H32.55A21.84,21.84,0,0,1,54.36,28.18V89.27A4.36,4.36,0,0,1,50,93.63ZM10.73,71.82H36.91a17.37,17.37,0,0,1,8.73,2.34v-46A13.11,13.11,0,0,0,32.55,15.09H10.73Z"/><path class="cls-2" d="M50,93.63a4.36,4.36,0,0,1-4.36-4.36V28.18A21.84,21.84,0,0,1,67.45,6.36H93.64A4.37,4.37,0,0,1,98,10.73V76.18a4.37,4.37,0,0,1-4.36,4.37H63.09a8.74,8.74,0,0,0-8.73,8.72A4.36,4.36,0,0,1,50,93.63ZM67.45,15.09A13.11,13.11,0,0,0,54.36,28.18v46a17.37,17.37,0,0,1,8.73-2.34H89.27V15.09Z"/></g></g></g></svg>