<svg xmlns="http://www.w3.org/2000/svg" viewBox="0 0 100 100"><defs><style>.cls-1{fill:none;}.cls-2{fill:#fff;}</style></defs><title>Collection.dark</title><g id="Calque_2" data-name="Calque 2"><g id="FIELD"><g id="COLLECTION"><path class="cls-1" d="M2,2V98H98V2Z"/><path class="cls-1" d="M0,0V100H100V0Z"/><path class="cls-2" d="M23.2,94.21A21.2,21.2,0,1,1,44.4,73,21.22,21.22,0,0,1,23.2,94.21Zm0-34.52A13.33,13.33,0,1,0,36.53,73,13.34,13.34,0,0,0,23.2,59.69Z"/><path class="cls-2" d="M50,48.19A21.2,21.2,0,1,1,71.2,27,21.23,21.23,0,0,1,50,48.19Zm0-34.53A13.33,13.33,0,1,0,63.33,27,13.34,13.34,0,0,0,50,13.66Z"/><path class="cls-2" d="M76.8,94.21A21.2,21.2,0,1,1,98,73,21.22,21.22,0,0,1,76.8,94.21Zm0-34.52A13.33,13.33,0,1,0,90.13,73,13.33,13.33,0,0,0,76.8,59.69Z"/></g></g></g></svg>