<svg xmlns="http://www.w3.org/2000/svg" viewBox="0 0 100 100"><defs><style>.cls-1{fill:#fff;}.cls-2,.cls-3{fill:none;}.cls-3{opacity:0.5;}</style></defs><title>Namespace.dark</title><g id="Calque_2" data-name="Calque 2"><g id="PlusSquare.dark"><path class="cls-1" d="M83.6,98H16.4A14.42,14.42,0,0,1,2,83.6V16.4A14.42,14.42,0,0,1,16.4,2H83.6A14.42,14.42,0,0,1,98,16.4V83.6A14.42,14.42,0,0,1,83.6,98M16.4,11.6a4.8,4.8,0,0,0-4.8,4.8V83.6a4.8,4.8,0,0,0,4.8,4.8H83.6a4.8,4.8,0,0,0,4.8-4.8V16.4a4.8,4.8,0,0,0-4.8-4.8Z"/><rect class="cls-2" x="2" y="2" width="96" height="96"/><path class="cls-3" d="M2,2V98H98V2Z"/><path class="cls-3" d="M0,0V100H100V0Z"/></g></g></svg>