<svg xmlns="http://www.w3.org/2000/svg" viewBox="0 0 100 100"><defs><style>.cls-1{fill:none;}.cls-2{fill:#fff;}</style></defs><title>group-blanc</title><g id="Calque_2" data-name="Calque 2"><g id="AUTH"><g id="GROUP"><path class="cls-1" d="M2,2V98H98V2Z"/><path class="cls-1" d="M0,0V100H100V0Z"/><path class="cls-2" d="M70,90.67a4,4,0,0,1-4-4v-8a12,12,0,0,0-12-12H22a12,12,0,0,0-12,12v8a4,4,0,0,1-8,0v-8a20,20,0,0,1,20-20H54a20,20,0,0,1,20,20v8A4,4,0,0,1,70,90.67Z"/><path class="cls-2" d="M36.22,49.33a20,20,0,1,1,20-20A20,20,0,0,1,36.22,49.33Zm0-32a12,12,0,1,0,12,12A12,12,0,0,0,36.22,17.33Z"/><path class="cls-2" d="M94,90.67a4,4,0,0,1-4-4V77.33a12,12,0,0,0-9-11.61A4,4,0,1,1,83,58,20,20,0,0,1,98,77.33v9.34A4,4,0,0,1,94,90.67Z"/><path class="cls-2" d="M64.22,48.85a4,4,0,0,1-1-7.87,12,12,0,0,0,7.35-17.74,11.88,11.88,0,0,0-7.35-5.51,4,4,0,0,1,2-7.75,20,20,0,0,1,0,38.75A4.19,4.19,0,0,1,64.22,48.85Z"/></g></g></g></svg>