<svg xmlns="http://www.w3.org/2000/svg" viewBox="0 0 100 100"><defs><style>.cls-1{fill:none;}.cls-2{fill:#fff;}</style></defs><title>Migration.dark</title><g id="Calque_2" data-name="Calque 2"><g id="WORFLOW"><g id="MIGRATION"><path class="cls-1" d="M2,2V98H98V2Z"/><path class="cls-1" d="M0,0V100H100V0Z"/><path class="cls-2" d="M63.38,54.17a4,4,0,0,1,0,5.66L49.24,74,63.38,88.11a4,4,0,0,1-5.66,5.66l-17-17a4,4,0,0,1,0-5.66l17-17A4,4,0,0,1,63.38,54.17Z"/><path class="cls-2" d="M85.39,78h-34c-1,0-1.72-1.79-1.72-4s.77-4,1.72-4H85.39c1,0,1.72,1.79,1.72,4S86.34,78,85.39,78Z"/><path class="cls-2" d="M35.93,45.77a4,4,0,0,1,0-5.66L50.07,26,35.93,11.83a4,4,0,0,1,5.66-5.66l17,17a4,4,0,0,1,0,5.66l-17,17A4,4,0,0,1,35.93,45.77Z"/><path class="cls-2" d="M13.92,22H48c1,0,1.72,1.79,1.72,4s-.77,4-1.72,4h-34c-.95,0-1.72-1.79-1.72-4S13,22,13.92,22Z"/></g></g></g></svg>