<svg xmlns="http://www.w3.org/2000/svg" viewBox="0 0 100 100"><defs><style>.cls-1{fill:#fff;}.cls-2{fill:none;}</style></defs><title>permission-blanc</title><g id="Calque_2" data-name="Calque 2"><g id="AUTH"><g id="PERMISSION"><path class="cls-1" d="M49.9,98A47.38,47.38,0,0,1,16.43,84.28C3.28,71.4-1.23,52.93,4.35,34.86A44.44,44.44,0,0,1,18,14C32.63,1.54,52.37-1.48,69.54,6.17a4.36,4.36,0,1,1-3.55,8c-14-6.25-30.28-3.74-42.34,6.54a35.83,35.83,0,0,0-11,16.77c-4.6,14.88-.92,30.06,9.84,40.61s26.08,13.91,41,9c15.42-5.11,25.78-20.09,25.78-37.28V47.09a4.36,4.36,0,0,1,8.72,0v2.66c0,21-12.76,39.27-31.76,45.56A52,52,0,0,1,49.9,98Z"/><path class="cls-1" d="M48,63.16a4.37,4.37,0,0,1-3.09-1.28L31.82,48.79A4.36,4.36,0,0,1,38,42.62l10,10L88.53,12a4.36,4.36,0,1,1,6.17,6.17L51.08,61.88A4.36,4.36,0,0,1,48,63.16Z"/><path class="cls-2" d="M2,2V98H98V2Z"/><path class="cls-2" d="M0,0V100H100V0Z"/></g></g></g></svg>