<svg xmlns="http://www.w3.org/2000/svg" viewBox="0 0 100 100"><defs><style>.cls-1{fill:none;}.cls-2{fill:#fff;}</style></defs><title>Tool.dark</title><g id="Calque_2" data-name="Calque 2"><g id="DISPLAY"><g id="TOOL_DARK" data-name="TOOL DARK"><path class="cls-1" d="M2,2V98H98V2Z"/><path class="cls-1" d="M0,0V100H100V0Z"/><path class="cls-2" d="M16.25,98A14.26,14.26,0,0,1,6.17,73.65L35.64,44.18A32,32,0,0,1,79.16,4.85a4.57,4.57,0,0,1,1.35,7.39L63.32,29.43l-3.27-3.19L70.59,36.72,87.76,19.49a4.47,4.47,0,0,1,4-1.26,4.57,4.57,0,0,1,3.34,2.61,32,32,0,0,1-16,42.34,32.1,32.1,0,0,1-23.38,1.18L26.35,93.83A14.26,14.26,0,0,1,16.25,98ZM66,11.14A22.85,22.85,0,0,0,45.15,43.42a4.56,4.56,0,0,1-.93,5.11L12.63,80.12a5.12,5.12,0,0,0,0,7.24,5.13,5.13,0,0,0,7.25,0L51.47,55.78a4.6,4.6,0,0,1,5.11-.93A22.86,22.86,0,0,0,88.72,31.46L77,43.18a9.2,9.2,0,0,1-12.83,0l-7.35-7.35a9.19,9.19,0,0,1,0-12.83l0,0L68.54,11.29A22.15,22.15,0,0,0,66,11.14Z"/></g></g></g></svg>