<svg xmlns="http://www.w3.org/2000/svg" viewBox="0 0 100 100"><defs><style>.cls-1{fill:none;}.cls-2{fill:#fff;}</style></defs><title>Views.dark</title><g id="Calque_2" data-name="Calque 2"><g id="DISPLAY"><g id="VIEWS_DARK" data-name="VIEWS DARK"><path class="cls-1" d="M2,2V98H98V2Z"/><path class="cls-1" d="M0,0V100H100V0Z"/><path class="cls-2" d="M84.91,89.27H15.09A13.1,13.1,0,0,1,2,76.18V23.82A13.1,13.1,0,0,1,15.09,10.73H84.91A13.1,13.1,0,0,1,98,23.82V76.18A13.1,13.1,0,0,1,84.91,89.27ZM15.09,19.45a4.37,4.37,0,0,0-4.36,4.37V76.18a4.37,4.37,0,0,0,4.36,4.37H84.91a4.37,4.37,0,0,0,4.36-4.37V23.82a4.37,4.37,0,0,0-4.36-4.37Z"/><path class="cls-2" d="M80.26,28.46a3.28,3.28,0,0,1,0-6.55h0a3.28,3.28,0,0,1,0,6.55Z"/><path class="cls-2" d="M49.74,28.46a3.3,3.3,0,0,1-3.3-3.27,3.26,3.26,0,0,1,3.25-3.28h.05a3.28,3.28,0,0,1,0,6.55Z"/><path class="cls-2" d="M65,28.46a3.3,3.3,0,0,1-3.3-3.27A3.26,3.26,0,0,1,65,21.91h0a3.28,3.28,0,0,1,0,6.55Z"/><path class="cls-2" d="M94.3,36.1H6.36a2.19,2.19,0,0,1,0-4.37H94.3a2.19,2.19,0,0,1,0,4.37Z"/></g></g></g></svg>