<svg xmlns="http://www.w3.org/2000/svg" viewBox="0 0 100 100"><defs><style>.cls-1{fill:none;}.cls-2{fill:#fff;}</style></defs><title>Document.dark</title><g id="Calque_2" data-name="Calque 2"><g id="OUTPUT"><g id="Document.dark"><path class="cls-1" d="M0,0V100H100V0Z"/><path class="cls-1" d="M2,2V98H98V2Z"/><path class="cls-2" d="M76.18,98H23.82A13.1,13.1,0,0,1,10.73,84.91V15.09A13.1,13.1,0,0,1,23.82,2H58.73a4.34,4.34,0,0,1,3.08,1.28L88,29.46a4.37,4.37,0,0,1,1.28,3.09V84.91A13.1,13.1,0,0,1,76.18,98ZM23.82,10.73a4.37,4.37,0,0,0-4.37,4.36V84.91a4.37,4.37,0,0,0,4.37,4.36H76.18a4.37,4.37,0,0,0,4.37-4.36V34.35L56.92,10.73Z"/><path class="cls-2" d="M84.91,36.91H58.73a4.37,4.37,0,0,1-4.37-4.36V6.36a4.37,4.37,0,0,1,8.73,0V28.18H84.91a4.37,4.37,0,0,1,0,8.73Z"/><path class="cls-2" d="M67.45,58.73H32.55a4.37,4.37,0,1,1,0-8.73h34.9a4.37,4.37,0,1,1,0,8.73Z"/><path class="cls-2" d="M67.45,76.18H32.55a4.37,4.37,0,1,1,0-8.73h34.9a4.37,4.37,0,1,1,0,8.73Z"/><path class="cls-2" d="M41.27,41.27H32.55a4.36,4.36,0,1,1,0-8.72h8.72a4.36,4.36,0,1,1,0,8.72Z"/></g></g></g></svg>