<svg xmlns="http://www.w3.org/2000/svg" viewBox="0 0 100 100"><defs><style>.cls-1{fill:none;}.cls-2{fill:#fff;}</style></defs><title>measurement</title><g id="Calque_2" data-name="Calque 2"><g id="FIELD"><g id="MEASUREMENT"><path class="cls-1" d="M2,2V98H98V2Z"/><path class="cls-1" d="M0,0V100H100V0Z"/><path class="cls-2" d="M26.88,98a12.81,12.81,0,0,1-9.09-3.76h0L5.61,82.06a12.87,12.87,0,0,1,0-18.18L63.73,5.76a12.87,12.87,0,0,1,18.18,0L94.59,18.44a12.13,12.13,0,0,1,0,17.17L36,94.24A12.85,12.85,0,0,1,26.88,98ZM23.5,88.53a4.78,4.78,0,0,0,6.76,0L88.88,29.91a4.08,4.08,0,0,0,0-5.76L76.2,11.47a4.78,4.78,0,0,0-6.76,0L11.32,69.59a4.79,4.79,0,0,0,0,6.76Z"/><path class="cls-2" d="M74.79,31.42A4,4,0,0,1,72,30.28L59.33,18A4,4,0,1,1,65,12.18L77.61,24.49a4,4,0,0,1-2.82,6.93Z"/><path class="cls-2" d="M59.2,47.42a4,4,0,0,1-2.82-1.14L43.74,34a4,4,0,1,1,5.64-5.78L62,40.5a4,4,0,0,1-2.82,6.92Z"/><path class="cls-2" d="M43.61,63.43a4,4,0,0,1-2.82-1.14L28.15,50a4,4,0,0,1,5.64-5.79L46.43,56.5a4,4,0,0,1-2.82,6.93Z"/><path class="cls-2" d="M28,79.44a4.06,4.06,0,0,1-2.82-1.15L12.56,66a4,4,0,0,1,5.64-5.79L30.84,72.51A4,4,0,0,1,28,79.44Z"/></g></g></g></svg>