<svg xmlns="http://www.w3.org/2000/svg" viewBox="0 0 100 100"><defs><style>.cls-1{fill:none;}.cls-2{fill:#fff;}</style></defs><title>Service.dark</title><g id="Calque_2" data-name="Calque 2"><g id="OUTPUT"><g id="NOTIFICATION"><path class="cls-1" d="M2,2V98H98V2Z"/><path class="cls-1" d="M0,0V100H100V0Z"/></g></g><g id="WORFLOW"><g id="SERVICE"><path class="cls-2" d="M24.7,69.8a4,4,0,0,1,0-5.66L38.84,50,24.7,35.86a4,4,0,0,1,5.66-5.66l17,17a4,4,0,0,1,0,5.66l-17,17A4,4,0,0,1,24.7,69.8Z"/><path class="cls-2" d="M75.42,30.2a4,4,0,0,1,0,5.66L61.28,50,75.42,64.14a4,4,0,0,1-5.66,5.66l-17-17a4,4,0,0,1,0-5.66l17-17A4,4,0,0,1,75.42,30.2Z"/><path class="cls-2" d="M92.65,54H61.28a4,4,0,0,1,0-8H92.65a4,4,0,0,1,0,8Z"/><path class="cls-2" d="M38.72,54H7.35a4,4,0,0,1,0-8H38.72a4,4,0,0,1,0,8Z"/></g></g></g></svg>