<svg xmlns="http://www.w3.org/2000/svg" viewBox="0 0 100 100"><defs><style>.cls-1{fill:#fff;}.cls-2{fill:none;}</style></defs><title>Docker.dark</title><g id="Calque_2" data-name="Calque 2"><g id="ENDPOINTS"><g id="DOCKER"><path class="cls-1" d="M54.49,47H44.57V38.13h9.92V47Zm0-30.65H44.57V25.5h9.92ZM66.22,38.11H56.3V47h9.92V38.11ZM42.77,27.3H32.86v9h9.91Zm11.72,0H44.57v9h9.92ZM96,42.3c-2.16-1.46-7.14-2-11-1.26-.49-3.6-2.5-6.74-6.16-9.56l-2.1-1.39-1.4,2.1c-2.76,4.17-3.51,11-.55,15.57a15.17,15.17,0,0,1-7.26,1.6H2.37A31.49,31.49,0,0,0,9,73.68c5.56,6.58,13.9,9.93,24.8,9.93C57.38,83.61,74.86,72.73,83,53c3.21.06,10.14,0,13.7-6.78.22-.38,1-2,1.27-2.57L96,42.3ZM19.35,38.11H9.45V47h9.91V38.11Zm11.71,0H21.15V47h9.91Zm11.71,0H32.86V47h9.91ZM31.06,27.3H21.15v9h9.91Z"/><path class="cls-2" d="M2,2V98H98V2Z"/><path class="cls-2" d="M0,0V100H100V0Z"/></g></g></g></svg>