<svg xmlns="http://www.w3.org/2000/svg" viewBox="0 0 100 100"><defs><style>.cls-1{fill:#fff;}.cls-2{fill:none;}</style></defs><title>Hostname.dark</title><g id="Calque_2" data-name="Calque 2"><g id="ENDPOINTS"><g id="HOSTNAME"><path class="cls-1" d="M84.91,45.64H15.09A13.11,13.11,0,0,1,2,32.55V15.09A13.1,13.1,0,0,1,15.09,2H84.91A13.1,13.1,0,0,1,98,15.09V32.55A13.11,13.11,0,0,1,84.91,45.64ZM15.09,10.73a4.36,4.36,0,0,0-4.36,4.36V32.55a4.36,4.36,0,0,0,4.36,4.36H84.91a4.36,4.36,0,0,0,4.36-4.36V15.09a4.36,4.36,0,0,0-4.36-4.36Z"/><path class="cls-1" d="M84.91,98H15.09A13.1,13.1,0,0,1,2,84.91V67.45A13.11,13.11,0,0,1,15.09,54.36H84.91A13.11,13.11,0,0,1,98,67.45V84.91A13.1,13.1,0,0,1,84.91,98ZM15.09,63.09a4.36,4.36,0,0,0-4.36,4.36V84.91a4.36,4.36,0,0,0,4.36,4.36H84.91a4.36,4.36,0,0,0,4.36-4.36V67.45a4.36,4.36,0,0,0-4.36-4.36Z"/><path class="cls-1" d="M23.86,28.18a4.37,4.37,0,0,1,0-8.73h0a4.37,4.37,0,0,1,0,8.73Z"/><path class="cls-1" d="M23.86,80.55a4.37,4.37,0,0,1,0-8.73h0a4.37,4.37,0,0,1,0,8.73Z"/><path class="cls-2" d="M2,2V98H98V2Z"/><path class="cls-2" d="M0,0V100H100V0Z"/></g></g></g></svg>