<svg xmlns="http://www.w3.org/2000/svg" viewBox="0 0 100 100"><defs><style>.cls-1{fill:none;}.cls-2{fill:#fff;}</style></defs><title>Display.dark</title><g id="Calque_2" data-name="Calque 2"><g id="DISPLAY"><g id="DISPLAY_DARK" data-name="DISPLAY DARK"><path class="cls-1" d="M2,2V98H98V2Z"/><path class="cls-1" d="M0,0V100H100V0Z"/><path class="cls-2" d="M84.91,76.18H15.09A13.1,13.1,0,0,1,2,63.09V19.45A13.11,13.11,0,0,1,15.09,6.36H84.91A13.11,13.11,0,0,1,98,19.45V63.09A13.1,13.1,0,0,1,84.91,76.18ZM15.09,15.09a4.37,4.37,0,0,0-4.36,4.36V63.09a4.36,4.36,0,0,0,4.36,4.36H84.91a4.36,4.36,0,0,0,4.36-4.36V19.45a4.36,4.36,0,0,0-4.36-4.36Z"/><path class="cls-2" d="M67.45,93.64H32.55a4.37,4.37,0,1,1,0-8.73h34.9a4.37,4.37,0,1,1,0,8.73Z"/><path class="cls-2" d="M50,93.64a4.37,4.37,0,0,1-4.36-4.37V71.82a4.36,4.36,0,1,1,8.72,0V89.27A4.37,4.37,0,0,1,50,93.64Z"/></g></g></g></svg>