<svg xmlns="http://www.w3.org/2000/svg" viewBox="0 0 100 100"><defs><style>.cls-1{fill:#fff;}.cls-2{fill:none;}</style></defs><title>field-blanc</title><g id="Calque_2" data-name="Calque 2"><g id="FIELD"><g id="FIELD-2" data-name="FIELD"><path class="cls-1" d="M15.09,36.91H57V28.18H15.09A13.1,13.1,0,0,0,2,41.27V58.73A13.11,13.11,0,0,0,15.09,71.82H57V63.09H15.09a4.37,4.37,0,0,1-4.36-4.36V41.27A4.36,4.36,0,0,1,15.09,36.91Z"/><path class="cls-1" d="M98,41.27V58.73A13.11,13.11,0,0,1,84.91,71.82h-7.8V63.09h7.8a4.37,4.37,0,0,0,4.36-4.36V41.27a4.36,4.36,0,0,0-4.36-4.36h-7.8V28.18h7.8A13.1,13.1,0,0,1,98,41.27Z"/><path class="cls-2" d="M2,2V98H98V2ZM80.65,97H53.5a4.37,4.37,0,1,1,0-8.73h9.21V11.7H53.5A4.37,4.37,0,1,1,53.5,3H80.65a4.37,4.37,0,0,1,0,8.73H71.44V88.3h9.21a4.37,4.37,0,0,1,0,8.73Z"/><path class="cls-2" d="M0,0V100H100V0ZM53.5,97a4.37,4.37,0,1,1,0-8.73h9.21V11.7H53.5A4.37,4.37,0,1,1,53.5,3H80.65a4.37,4.37,0,0,1,0,8.73H71.44V88.3h9.21a4.37,4.37,0,0,1,0,8.73Z"/><path class="cls-1" d="M85,92.67A4.36,4.36,0,0,1,80.65,97H53.5a4.37,4.37,0,1,1,0-8.73h9.21V11.7H53.5A4.37,4.37,0,1,1,53.5,3H80.65a4.37,4.37,0,0,1,0,8.73H71.44V88.3h9.21A4.36,4.36,0,0,1,85,92.67Z"/></g></g></g></svg>