<svg xmlns="http://www.w3.org/2000/svg" viewBox="0 0 100 100"><defs><style>.cls-1{fill:#fff;}.cls-2{fill:none;}</style></defs><title>Endpoints.dark</title><g id="Calque_2" data-name="Calque 2"><g id="ENDPOINTS"><g id="ENDPOINTS-2" data-name="ENDPOINTS"><path class="cls-1" d="M50,98A48,48,0,1,1,98,50,48.05,48.05,0,0,1,50,98Zm0-87.27A39.27,39.27,0,1,0,89.27,50,39.31,39.31,0,0,0,50,10.73Z"/><path class="cls-1" d="M50,80.54A30.55,30.55,0,1,1,80.55,50,30.58,30.58,0,0,1,50,80.54Zm0-52.36A21.82,21.82,0,1,0,71.82,50,21.85,21.85,0,0,0,50,28.18Z"/><path class="cls-1" d="M50,63.09A13.09,13.09,0,1,1,63.09,50,13.1,13.1,0,0,1,50,63.09Zm0-17.45A4.36,4.36,0,1,0,54.36,50,4.36,4.36,0,0,0,50,45.64Z"/><path class="cls-2" d="M2,2V98H98V2Z"/><path class="cls-2" d="M0,0V100H100V0Z"/></g></g></g></svg>