<svg xmlns="http://www.w3.org/2000/svg" viewBox="0 0 100 100"><defs><style>.cls-1{fill:none;}.cls-2{fill:#fff;}</style></defs><title>Pipaline.dark</title><g id="Calque_2" data-name="Calque 2"><g id="AUTOMATIONS"><g id="PIPELINE_DARK" data-name="PIPELINE DARK"><path class="cls-1" d="M2,2V98H98V2Z"/><path class="cls-1" d="M0,0V100H100V0Z"/><path class="cls-2" d="M78.8,40.4A19.2,19.2,0,1,1,98,21.2,19.22,19.22,0,0,1,78.8,40.4Zm0-28.8a9.6,9.6,0,1,0,9.6,9.6A9.62,9.62,0,0,0,78.8,11.6Z"/><path class="cls-2" d="M21.2,98A19.2,19.2,0,1,1,40.4,78.8,19.22,19.22,0,0,1,21.2,98Zm0-28.8a9.6,9.6,0,1,0,9.6,9.6A9.62,9.62,0,0,0,21.2,69.2Z"/><path class="cls-2" d="M21.2,50a4.8,4.8,0,0,1-4.8-4.8V30.8A14.42,14.42,0,0,1,30.8,16.4H64.4a4.8,4.8,0,0,1,0,9.6H30.8A4.8,4.8,0,0,0,26,30.8V45.2A4.8,4.8,0,0,1,21.2,50Z"/><path class="cls-2" d="M93.2,83.6H35.6a4.8,4.8,0,0,1,0-9.6H93.2a4.8,4.8,0,0,1,0,9.6Z"/></g></g></g></svg>