<svg xmlns="http://www.w3.org/2000/svg" viewBox="0 0 100 100"><defs><style>.cls-1{fill:none;}.cls-2{fill:#fff;}</style></defs><title>Revision.dark_1</title><g id="Calque_2" data-name="Calque 2"><g id="WORFLOW"><g id="REVISION"><path class="cls-1" d="M2,2V98H98V2Z"/><path class="cls-1" d="M0,0V100H100V0Z"/><path class="cls-2" d="M25.8,30.2a4,4,0,0,1,0,5.66L11.66,50,25.8,64.14a4,4,0,0,1-5.66,5.66l-17-17a4,4,0,0,1,0-5.66l17-17A4,4,0,0,1,25.8,30.2Z"/><path class="cls-2" d="M94.05,54H15.68a4,4,0,0,1,0-8H94.05a4,4,0,0,1,0,8Z"/></g></g></g></svg>