<svg xmlns="http://www.w3.org/2000/svg" viewBox="0 0 100 100"><defs><style>.cls-1{fill:#fff;}.cls-2{fill:none;}</style></defs><title>Log.dark</title><g id="Calque_2" data-name="Calque 2"><g id="OUTPUT"><g id="LOG"><path class="cls-1" d="M58.48,59.86a3.92,3.92,0,0,1-3.9,3.93H23.32a3.92,3.92,0,0,1,0-7.84H54.58A3.91,3.91,0,0,1,58.48,59.86Z"/><path class="cls-1" d="M58.48,75.54a3.92,3.92,0,0,1-3.9,3.93H23.32a3.86,3.86,0,0,1-2.75-1.15,3.92,3.92,0,0,1,2.75-6.69H54.58a3.91,3.91,0,0,1,3.76,2.88A3.82,3.82,0,0,1,58.48,75.54Z"/><path class="cls-1" d="M35,44.19a3.91,3.91,0,0,1-3.9,3.92H23.32a3.92,3.92,0,0,1,0-7.84h7.82A3.92,3.92,0,0,1,35,44.19Z"/><path class="cls-1" d="M75.88,74.64l1.05-5.11a7,7,0,0,0,.14-1.39V30.66a7.81,7.81,0,0,0-7.79-7.82H31.92A7.5,7.5,0,0,0,30.5,23l-5.05,1,.94-5.06A14.87,14.87,0,0,1,36.9,7.38a14.06,14.06,0,0,1,4-.58H78.28A14.82,14.82,0,0,1,93.06,21.63V59.12A14.82,14.82,0,0,1,81,73.68ZM35.71,15.84H69.28A14.82,14.82,0,0,1,84.07,30.66V64.32a7.83,7.83,0,0,0,2-5.2V21.63a7.81,7.81,0,0,0-7.78-7.83H40.92a7.27,7.27,0,0,0-2.08.3A7.91,7.91,0,0,0,35.71,15.84Z"/><path class="cls-1" d="M66.33,83.29l.5-4.28a4.44,4.44,0,0,0,0-.63V40.88a7.8,7.8,0,0,0-7.78-7.81H21.72c-.21,0-.42,0-.62,0l-4.28.51.38-4.3A14.88,14.88,0,0,1,27.91,16.4c.43-.12.86-.23,1.3-.31a14.16,14.16,0,0,1,2.71-.25H69.28A14.82,14.82,0,0,1,84.07,30.66V68.14a14.31,14.31,0,0,1-.26,2.71,11.21,11.21,0,0,1-.34,1.42A14.84,14.84,0,0,1,70.63,82.9ZM25.63,26.07H59.09A14.81,14.81,0,0,1,73.87,40.88V74.44a7.8,7.8,0,0,0,2.89-4.17,3.6,3.6,0,0,0,.14-.54l0-.2a7,7,0,0,0,.14-1.39V30.66a7.81,7.81,0,0,0-7.79-7.82H31.92A7.5,7.5,0,0,0,30.5,23c-.27.05-.48.1-.7.16A7.82,7.82,0,0,0,25.63,26.07Z"/><path class="cls-1" d="M59.09,93.2H21.72A14.82,14.82,0,0,1,6.94,78.38V40.88A14.87,14.87,0,0,1,17.71,26.63a13.57,13.57,0,0,1,2.65-.49,12.26,12.26,0,0,1,1.36-.07H59.09A14.81,14.81,0,0,1,73.87,40.88v37.5a12.39,12.39,0,0,1-.07,1.36,13.3,13.3,0,0,1-.5,2.68A14.86,14.86,0,0,1,59.09,93.2ZM21.72,33.07c-.21,0-.42,0-.62,0l-.16,0a6.37,6.37,0,0,0-1.31.24,7.84,7.84,0,0,0-5.69,7.52v37.5a7.81,7.81,0,0,0,7.78,7.82H59.09a7.84,7.84,0,0,0,7.48-5.7,6.07,6.07,0,0,0,.25-1.33V79a4.44,4.44,0,0,0,0-.63V40.88a7.8,7.8,0,0,0-7.78-7.81Z"/><path class="cls-2" d="M2,2V98H98V2Z"/><path class="cls-2" d="M0,0V100H100V0Z"/></g></g></g></svg>