<svg xmlns="http://www.w3.org/2000/svg" viewBox="0 0 100 100"><defs><style>.cls-1{fill:none;}.cls-2{fill:#fff;}</style></defs><title>Map.dark</title><g id="Calque_2" data-name="Calque 2"><g id="OUTPUT"><g id="Map.dark"><path class="cls-1" d="M2,2V98H98V2Z"/><path class="cls-1" d="M0,0V100H100V0Z"/><path class="cls-2" d="M66,94a4,4,0,0,1-1.79-.42l-30.08-15L8,93.47A4,4,0,0,1,2,90V26a4,4,0,0,1,2-3.47l28-16a4,4,0,0,1,3.77-.11l30.08,15L92,6.53A4,4,0,0,1,98,10V74a4,4,0,0,1-2,3.47l-28,16A4,4,0,0,1,66,94ZM34,70a4,4,0,0,1,1.79.42l30.08,15L90,71.68V16.89L68,29.47a4,4,0,0,1-3.77.11l-30.08-15L10,28.32V83.1L32,70.53A4,4,0,0,1,34,70Z"/><path class="cls-2" d="M34,78a4,4,0,0,1-4-4V10a4,4,0,0,1,8,0V74A4,4,0,0,1,34,78Z"/><path class="cls-2" d="M66,94a4,4,0,0,1-4-4V26a4,4,0,0,1,8,0V90A4,4,0,0,1,66,94Z"/></g></g></g></svg>
