<svg xmlns="http://www.w3.org/2000/svg" viewBox="0 0 100 100"><defs><style>.cls-1{fill:none;}.cls-2{fill:#fff;}</style></defs><title>Version.dark</title><g id="Calque_2" data-name="Calque 2"><g id="WORFLOW"><g id="VERSION_DARK" data-name="VERSION DARK"><path class="cls-1" d="M2,2V98H98V2Z"/><path class="cls-1" d="M0,0V100H100V0Z"/><path class="cls-2" d="M50,54.36a4.3,4.3,0,0,1-2-.46L4.41,32.09a4.37,4.37,0,0,1,0-7.81L48.05,2.46a4.38,4.38,0,0,1,3.9,0L95.59,24.28a4.37,4.37,0,0,1,0,7.81L52,53.9A4.3,4.3,0,0,1,50,54.36ZM16.12,28.18,50,45.12,83.88,28.18,50,11.24Z"/><path class="cls-2" d="M50,98a4.3,4.3,0,0,1-2-.46L4.41,75.72a4.37,4.37,0,0,1,3.91-7.81L50,88.76,91.68,67.91a4.37,4.37,0,0,1,3.91,7.81L52,97.54A4.3,4.3,0,0,1,50,98Z"/><path class="cls-2" d="M50,76.18a4.3,4.3,0,0,1-2-.46L4.41,53.9a4.36,4.36,0,1,1,3.91-7.8L50,66.94,91.68,46.1a4.36,4.36,0,1,1,3.91,7.8L52,75.72A4.3,4.3,0,0,1,50,76.18Z"/></g></g></g></svg>