<svg xmlns="http://www.w3.org/2000/svg" viewBox="0 0 100 100"><defs><style>.cls-1{fill:none;}.cls-2{fill:#fff;}</style></defs><title>text</title><g id="Calque_2" data-name="Calque 2"><g id="FIELD"><g id="TEXT"><path class="cls-1" d="M2,2V98H98V2Z"/><path class="cls-1" d="M0,0V100H100V0Z"/><path class="cls-2" d="M71.82,55.75H27.18a5.58,5.58,0,1,1,0-11.16H71.82a5.58,5.58,0,1,1,0,11.16Z"/><path class="cls-2" d="M71.82,78.07H27.18a5.58,5.58,0,1,1,0-11.16H71.82a5.58,5.58,0,1,1,0,11.16Z"/><path class="cls-2" d="M38.34,33.43H27.18a5.58,5.58,0,1,1,0-11.16H38.34a5.58,5.58,0,0,1,0,11.16Z"/><path class="cls-2" d="M81.41,98H18.59A16.61,16.61,0,0,1,2,81.41V18.59A16.61,16.61,0,0,1,18.59,2H81.41A16.61,16.61,0,0,1,98,18.59V81.41A16.61,16.61,0,0,1,81.41,98ZM18.59,13.16a5.44,5.44,0,0,0-5.43,5.43V81.41a5.44,5.44,0,0,0,5.43,5.43H81.41a5.44,5.44,0,0,0,5.43-5.43V18.59a5.44,5.44,0,0,0-5.43-5.43Z"/></g></g></g></svg>