<svg xmlns="http://www.w3.org/2000/svg" viewBox="0 0 100 100"><defs><style>.cls-1{fill:none;}.cls-2{fill:#fff;}</style></defs><title>Operation.dark</title><g id="Calque_2" data-name="Calque 2"><g id="AUTOMATIONS"><g id="OPERATION_DARK" data-name="OPERATION DARK"><path class="cls-1" d="M2,2V98H98V2Z"/><path class="cls-1" d="M0,0V100H100V0Z"/><path class="cls-2" d="M50,70.08A20.08,20.08,0,1,1,70.06,50,20.1,20.1,0,0,1,50,70.08ZM50,38A12,12,0,1,0,62,50,12.06,12.06,0,0,0,50,38Z"/><path class="cls-2" d="M29.91,54H6a4,4,0,0,1,0-8H29.91a4,4,0,0,1,0,8Z"/><path class="cls-2" d="M94,54H70.09a4,4,0,0,1,0-8H94a4,4,0,0,1,0,8Z"/></g></g></g></svg>