<svg xmlns="http://www.w3.org/2000/svg" viewBox="0 0 100 100"><defs><style>.cls-1{fill:none;}.cls-2{fill:#fff;}</style></defs><title>Workflow.dark</title><g id="Calque_2" data-name="Calque 2"><g id="WORFLOW"><g id="WORKFLOW"><path class="cls-1" d="M2,2V98H98V2Z"/><path class="cls-1" d="M0,0V100H100V0Z"/><path class="cls-2" d="M34.39,44.76a5,5,0,0,1-.94-.09,4.72,4.72,0,0,1-3.69-5.56L34.44,16,11.35,11.34A4.71,4.71,0,0,1,13.22,2.1L40.93,7.71a4.72,4.72,0,0,1,3.69,5.56L39,41A4.71,4.71,0,0,1,34.39,44.76Z"/><path class="cls-2" d="M49.93,98A44.43,44.43,0,0,1,20.2,86.61l-1.86-1.84A44.75,44.75,0,0,1,35.86,10.64a4.72,4.72,0,1,1,3,9A35.28,35.28,0,0,0,16.48,64.28,35,35,0,0,0,25,78.09l1.67,1.68a35.18,35.18,0,0,0,46.85-.18L75,78.1a35.39,35.39,0,0,0,0-50,34.9,34.9,0,0,0-13.8-8.51,4.72,4.72,0,0,1,3-9A44.79,44.79,0,0,1,81.65,84.78L80,86.43A44.93,44.93,0,0,1,49.93,98Z"/></g></g></g></svg>