<svg xmlns="http://www.w3.org/2000/svg" viewBox="0 0 100 100"><defs><style>.cls-1{fill:none;}.cls-2{fill:#fff;}</style></defs><title>value-blanc</title><g id="Calque_2" data-name="Calque 2"><g id="STORAGE"><g id="VALUE"><path class="cls-1" d="M2,2V98H98V2Z"/><path class="cls-1" d="M0,0V100H100V0Z"/><path class="cls-2" d="M45.64,98a4.41,4.41,0,0,1-1.74-.36,4.36,4.36,0,0,1-2.59-4.55l3.75-30H10.73a4.37,4.37,0,0,1-3.36-7.16L51,3.57A4.36,4.36,0,0,1,58.69,6.9l-3.75,30H89.27a4.37,4.37,0,0,1,3.36,7.16L49,96.43A4.36,4.36,0,0,1,45.64,98ZM20,54.36H50a4.37,4.37,0,0,1,4.33,4.91L51.81,79.41,80,45.63H50a4.36,4.36,0,0,1-4.33-4.9l2.52-20.14Z"/></g></g></g></svg>