<svg xmlns="http://www.w3.org/2000/svg" viewBox="0 0 100 100"><defs><style>.cls-1{fill:none;}.cls-2{fill:#fff;}</style></defs><title>Visualization.dark</title><g id="Calque_2" data-name="Calque 2"><g id="OUTPUT"><g id="Visualization.dark"><path class="cls-1" d="M2,2V98H98V2Z"/><path class="cls-1" d="M0,0V100H100V0Z"/><path class="cls-2" d="M50,98A48,48,0,0,1,30.8,6a4.36,4.36,0,0,1,3.49,8A39.27,39.27,0,1,0,86.17,65.27a4.36,4.36,0,0,1,8,3.4A48.09,48.09,0,0,1,50,98Z"/><path class="cls-2" d="M93.63,54.36H50A4.36,4.36,0,0,1,45.64,50V6.36A4.36,4.36,0,0,1,50,2,48.05,48.05,0,0,1,98,50,4.36,4.36,0,0,1,93.63,54.36ZM54.36,45.63H89A39.35,39.35,0,0,0,54.36,11Z"/></g></g></g></svg>