<svg xmlns="http://www.w3.org/2000/svg" viewBox="0 0 100 100"><defs><style>.cls-1{fill:#fff;}.cls-2{fill:none;}</style></defs><title>Connector.dark</title><g id="Calque_2" data-name="Calque 2"><g id="ENDPOINTS"><g id="CONNECTEUR"><path class="cls-1" d="M74,74H62a4,4,0,0,1,0-8H74a16,16,0,0,0,0-32H62a4,4,0,0,1,0-8H74a24,24,0,0,1,0,48ZM38,74H26a24,24,0,0,1,0-48H38a4,4,0,0,1,0,8H26a16,16,0,0,0,0,32H38a4,4,0,0,1,0,8Z"/><path class="cls-1" d="M66,54H34a4,4,0,0,1,0-8H66a4,4,0,0,1,0,8Z"/><path class="cls-2" d="M2,2V98H98V2Z"/><path class="cls-2" d="M0,0V100H100V0Z"/></g></g></g></svg>