<svg xmlns="http://www.w3.org/2000/svg" viewBox="0 0 100 100"><defs><style>.cls-1{fill:none;}.cls-2{fill:#fff;}</style></defs><title>Deployment.dark</title><g id="Calque_2" data-name="Calque 2"><g id="OUTPUT"><g id="Deployment.dark"><path class="cls-1" d="M2,2V98H98V2Z"/><path class="cls-1" d="M0,0V100H100V0Z"/><path class="cls-2" d="M41.66,77.86V70.93"/><path class="cls-2" d="M38.5,21.44,4.62,24.68,2,25V74.78L4.58,75,38.5,78.52l3.16.35V21.13ZM34,70.31,9.67,67.81V32L34,29.61Z"/><polygon class="cls-2" points="98 30.85 98 68.34 41.81 78.71 41.66 77.86 41.66 70.93 90.29 61.95 90.29 37.32 41.66 28.88 41.66 21.79 41.77 21.13 98 30.85"/><rect class="cls-2" x="52.74" y="29.61" width="7.71" height="42.82"/><rect class="cls-2" x="72.51" y="29.95" width="7.71" height="40.57"/><line class="cls-2" x1="79.44" y1="35.44" x2="79.44" y2="27.64"/></g></g></g></svg>