<svg xmlns="http://www.w3.org/2000/svg" viewBox="0 0 100 100"><defs><style>.cls-1{fill:#fff;}.cls-2{fill:none;}</style></defs><title>company-blanc</title><g id="Calque_2" data-name="Calque 2"><g id="AUTH"><g id="COMPANY"><path class="cls-1" d="M84.62,93.59h-.09L15,93.13A13,13,0,0,1,2.06,80l.29-43.46a13.06,13.06,0,0,1,13-13h.08L85,24.08a13,13,0,0,1,13,13.12l-.29,43.45a13,13,0,0,1-13,12.94ZM15.39,32.3A4.35,4.35,0,0,0,11,36.62l-.29,43.45a4.34,4.34,0,0,0,4.32,4.37l69.52.46h0A4.34,4.34,0,0,0,89,80.59l.29-43.45a4.34,4.34,0,0,0-4.31-4.37L15.41,32.3h0Z"/><path class="cls-1" d="M67.18,93.48h0a4.36,4.36,0,0,1-4.32-4.38l.47-69.51A4.37,4.37,0,0,0,59,15.21L41.6,15.1a3.66,3.66,0,0,0-3.08,1.25,4.25,4.25,0,0,0-1.29,3.06l-.46,69.52a4.35,4.35,0,0,1-4.35,4.32h0a4.34,4.34,0,0,1-4.31-4.38l.46-69.51a13,13,0,0,1,13-12.95h.08L59,6.52A13.07,13.07,0,0,1,72,19.64l-.47,69.52A4.34,4.34,0,0,1,67.18,93.48Z"/><path class="cls-2" d="M2,2V98H98V2Z"/><path class="cls-2" d="M0,0V100H100V0Z"/></g></g></g></svg>