<svg xmlns="http://www.w3.org/2000/svg" viewBox="0 0 100 100"><defs><style>.cls-1{fill:none;}.cls-2{fill:#fff;}</style></defs><title>Owners.dark</title><g id="Calque_2" data-name="Calque 2"><g id="AUTH"><g id="OWNERS_LIGHT" data-name="OWNERS LIGHT"><path class="cls-1" d="M2,2V98H98V2Z"/><path class="cls-1" d="M0,0V100H100V0Z"/></g><g id="AUTH-2" data-name="AUTH"><path d="M80.08,90.78a4,4,0,0,1-4-4v-8a12,12,0,0,0-12-12H36a12,12,0,0,0-12,12v8a4,4,0,1,1-8,0v-8A20.07,20.07,0,0,1,36,58.69H64a20.07,20.07,0,0,1,20,20v8A4,4,0,0,1,80.08,90.78Z"/><path class="cls-2" d="M80.08,90.78a4,4,0,0,1-4-4v-8a12,12,0,0,0-12-12H36a12,12,0,0,0-12,12v8a4,4,0,1,1-8,0v-8A20.07,20.07,0,0,1,36,58.69H64a20.07,20.07,0,0,1,20,20v8A4,4,0,0,1,80.08,90.78Z"/><path class="cls-2" d="M49.55,49.33a20.06,20.06,0,1,1,20.06-20A20.08,20.08,0,0,1,49.55,49.33Zm0-32.09a12,12,0,1,0,12,12A12.05,12.05,0,0,0,49.55,17.24Z"/><path class="cls-2" d="M94.81,64.4a1.88,1.88,0,0,1-1.89-1.88V58.75a5.65,5.65,0,0,0-5.65-5.65H74.09a5.65,5.65,0,0,0-5.65,5.65v3.77a1.89,1.89,0,0,1-3.77,0V58.75a9.44,9.44,0,0,1,9.42-9.42H87.27a9.44,9.44,0,0,1,9.42,9.42v3.77A1.88,1.88,0,0,1,94.81,64.4Z"/><path class="cls-2" d="M80.47,44.94a9.42,9.42,0,1,1,9.42-9.42A9.44,9.44,0,0,1,80.47,44.94Zm0-15.07a5.65,5.65,0,1,0,5.65,5.65A5.66,5.66,0,0,0,80.47,29.87Z"/><path class="cls-2" d="M33.07,64.51a1.88,1.88,0,0,1-1.89-1.88V58.86a5.66,5.66,0,0,0-5.65-5.65H12.35A5.66,5.66,0,0,0,6.7,58.86v3.77a1.89,1.89,0,0,1-3.77,0V58.86a9.43,9.43,0,0,1,9.42-9.41H25.53A9.43,9.43,0,0,1,35,58.86v3.77A1.88,1.88,0,0,1,33.07,64.51Z"/><path class="cls-2" d="M18.73,45.05a9.42,9.42,0,1,1,9.42-9.42A9.43,9.43,0,0,1,18.73,45.05Zm0-15.07a5.65,5.65,0,1,0,5.65,5.65A5.66,5.66,0,0,0,18.73,30Z"/></g></g></g></svg>