<svg xmlns="http://www.w3.org/2000/svg" viewBox="0 0 100 100"><defs><style>.cls-1{fill:none;}.cls-2{fill:#fff;}</style></defs><title>project</title><g id="Calque_2" data-name="Calque 2"><g id="CATALOG"><g id="PROJECT"><path class="cls-1" d="M0,0V100H100V0Z"/><path class="cls-1" d="M2,2V98H98V2Z"/><path class="cls-2" d="M50.09,36.22,32.35,5.49a6.51,6.51,0,0,0-11.28,0L3.33,36.22A6.52,6.52,0,0,0,9,46H44.45a6.52,6.52,0,0,0,5.64-9.77ZM41.93,38H11.48L26.71,11.66Z"/><path class="cls-2" d="M95.58,13.05,86.44,3.9A6.49,6.49,0,0,0,81.84,2H68.91a6.57,6.57,0,0,0-4.6,1.9l-9.14,9.15a6.45,6.45,0,0,0-1.9,4.6V30.58a6.44,6.44,0,0,0,1.9,4.59l9.14,9.15a6.57,6.57,0,0,0,4.6,1.9H81.84a6.45,6.45,0,0,0,4.6-1.9l9.14-9.15a6.44,6.44,0,0,0,1.91-4.59V17.65A6.46,6.46,0,0,0,95.58,13.05Zm-6,5.2V30l-8.29,8.29H69.52L61.23,30V18.25L69.52,10H81.24Z"/><path class="cls-2" d="M26.71,51.1A23.45,23.45,0,1,0,50.16,74.55,23.47,23.47,0,0,0,26.71,51.1Zm0,38.93A15.49,15.49,0,1,1,42.19,74.55,15.49,15.49,0,0,1,26.71,90Z"/><path class="cls-2" d="M91,52.38H59.72a6.53,6.53,0,0,0-6.52,6.51V90.21a6.53,6.53,0,0,0,6.52,6.51H91a6.52,6.52,0,0,0,6.51-6.51V58.89A6.52,6.52,0,0,0,91,52.38Zm-1.46,8V88.75H61.17V60.34Z"/></g></g></g></svg>