<svg xmlns="http://www.w3.org/2000/svg" viewBox="0 0 100 100"><defs><style>.cls-1{fill:none;}.cls-2{fill:#fff;}</style></defs><title>Modes.dark</title><g id="Calque_2" data-name="Calque 2"><g id="DISPLAY"><g id="MODES_DARK" data-name="MODES DARK"><path class="cls-1" d="M2,2V98H98V2Z"/><path class="cls-1" d="M0,0V100H100V0Z"/><path class="cls-2" d="M97.68,54.06,90.12,23.78A14.66,14.66,0,0,0,71.26,13.42l-2.54.85A2.66,2.66,0,0,0,67,17.64l.85,2.53a2.66,2.66,0,0,0,3.37,1.69l2.19-.73a7.12,7.12,0,0,1,5.53.28,6.62,6.62,0,0,1,3.4,4.31l6.41,25.63a46.34,46.34,0,0,0-13.54-2.07A43.8,43.8,0,0,0,56.1,53.73H43.9a43.63,43.63,0,0,0-19.14-4.45,46.21,46.21,0,0,0-13.53,2.07l6.41-25.64A6.61,6.61,0,0,1,21,21.41a7.17,7.17,0,0,1,5.53-.29l2.19.74a2.66,2.66,0,0,0,3.37-1.69L33,17.64a2.66,2.66,0,0,0-1.69-3.37l-2.54-.85A14.66,14.66,0,0,0,9.87,23.77L2.32,54.06A10.72,10.72,0,0,0,2,56.64V68.35a19.09,19.09,0,0,0,19.2,19h6.19A19.1,19.1,0,0,0,46.53,69.77L47,63.33h6l.49,6.44A19.1,19.1,0,0,0,72.61,87.33H78.8a19.09,19.09,0,0,0,19.2-19V56.65A10.74,10.74,0,0,0,97.68,54.06ZM35.9,69a8.49,8.49,0,0,1-8.51,7.7H21.2a8.44,8.44,0,0,1-8.53-8.32V62.1a35.91,35.91,0,0,1,12.09-2.16A32.55,32.55,0,0,1,36.42,62.1L35.9,69Zm51.43-.62a8.44,8.44,0,0,1-8.53,8.32H72.61A8.49,8.49,0,0,1,64.1,69l-.52-6.87a32.55,32.55,0,0,1,11.66-2.16A36.21,36.21,0,0,1,87.33,62.1v6.25Z"/></g></g></g></svg>