<svg xmlns="http://www.w3.org/2000/svg" viewBox="0 0 100 100"><defs><style>.cls-1{fill:none;}.cls-2{fill:#fff;}</style></defs><title>token-blanc</title><g id="Calque_2" data-name="Calque 2"><g id="AUTH"><g id="TOKEN"><path class="cls-1" d="M2,2V98H98V2Z"/><path class="cls-1" d="M0,0V100H100V0Z"/><path class="cls-2" d="M88.4,40.4H11.6a4.8,4.8,0,0,1,0-9.6H88.4a4.8,4.8,0,0,1,0,9.6Z"/><path class="cls-2" d="M88.4,69.2H11.6a4.8,4.8,0,0,1,0-9.6H88.4a4.8,4.8,0,0,1,0,9.6Z"/><path class="cls-2" d="M30.8,98l-.53,0A4.81,4.81,0,0,1,26,92.67l9.6-86.4a4.8,4.8,0,0,1,9.54,1.06l-9.6,86.4A4.79,4.79,0,0,1,30.8,98Z"/><path class="cls-2" d="M59.6,98l-.53,0a4.81,4.81,0,0,1-4.24-5.3l9.6-86.4A4.8,4.8,0,0,1,74,7.33l-9.6,86.4A4.79,4.79,0,0,1,59.6,98Z"/></g></g></g></svg>